<?xml version="1.0" encoding="UTF-8"?>
<svg xmlns="http://www.w3.org/2000/svg" viewBox="0 0 1624.05 501.05">
  <defs>
    <style>
      .cls-1 {
        fill: #41af8d;
        fill-rule: evenodd;
      }

      .cls-1, .cls-2 {
        stroke: #000;
        stroke-linecap: round;
        stroke-linejoin: round;
        stroke-width: .25px;
      }

      .cls-2 {
        fill: #86b2a3;
        font-family: Mistral, Mistral;
        font-size: 428px;
      }
    </style>
  </defs>
  <g id="Layer_1" data-name="Layer 1">
    <text class="cls-2" transform="translate(.12 365.08)"><tspan x="0" y="0">Doc</tspan></text>
    <text class="cls-2" transform="translate(1076.46 356.31)"><tspan x="0" y="0">com</tspan></text>
  </g>
  <g id="Layer_4" data-name="Layer 4">
    <g>
      <path class="cls-1" d="m601.45,31.13l77.22,2.33s-57.7,209.12-51.94,226.5c5.76,17.37-13.07,55.9,61.36,59.65,43.73,2.21,68.45-26.78,77.44-35.44,6.51-6.27,9.32-12.83,12-19.62,7.48-18.94,17.48-47.82,25.96-86.71,9.23-46.37,18.51-92.96,27.83-139.78,25.76.78,51.58,1.56,77.46,2.34-9.28,48.23-18.51,96.23-27.69,143.99-12.01,39.86-23.97,79.55-35.87,119.06,0,0-17.36,76.25-169.83,69.29-150.35-6.87-132.93-79.63-132.93-79.63l21.52-123.55,37.47-138.45Z"/>
      <path class="cls-1" d="m587.12,45.48l-15.57,55.29s-58.93-.93-53.19-29.57c5.76-28.73,68.77-25.72,68.77-25.72Z"/>
      <path class="cls-1" d="m920.47,55.42l-13.41,56.32s59.72,6.22,69.06-22.83c9.37-29.15-55.64-33.49-55.64-33.49Z"/>
      <path class="cls-1" d="m951.5,408.31c-3.43-2.72-6.85-5.44-10.28-8.16-1.5-1.65-2.85-3.38-4.05-5.19-28.39,21.18-44.64-16.48-100.26-12.19-48.33,3.73-46.65,18.73-70.42,34.68-6.79,4.56-9.06,8.22-23.27,12.9-15.59,5.13-26.39,5.27-33.83,2.55-30.46-10.14-13.91-44.07-13.91-44.07l-64.28-1.88s-6.93,14.21,1.67,34.71c3.15,7.49,6.27,21.79,14.6,28.02,5.36,6.39,13.73,13.01,22.37,16.71,9.32,3.99,28.44,9.48,42.64,11.07,20.65,1.4,34.44-.76,44.15-6.7,6.75-4.13,13.17-9.86,21.08-15.73,7.67-5.69,14.31-12.66,18.29-15.93,9.4-7.71,21.24-19.05,40.95-20.52,36.81-2.76,44.98,4.41,84.63,7.44,21.06,1.61,35.7-5.36,44.83-12.28-5.32-1.02-10.29-2.82-14.92-5.42Z"/>
      <g>
        <path class="cls-1" d="m1030.36,354.23c-4.8,19.02-24.65,33.67-44.32,32.77-19.63-.9-31.71-16.98-27-35.94s24.52-33.75,44.24-32.9c19.76.85,31.89,17.01,27.09,36.07Z"/>
        <path class="cls-1" d="m1008.69,296.54c-32.08-1.34-64.21,22.67-71.84,53.54-7.6,30.76,11.99,56.83,43.83,58.33,31.93,1.5,64.23-22.27,72.07-53.18,7.87-31.02-11.89-57.34-44.06-58.68Zm14.82,87.12c-5.11,4.58-10.8,7.9-17.07,9.95-6.06,2.97-12.31,4.49-18.74,4.56-8.86.33-16.78-1.46-23.78-5.37-2.9-2.3-5.81-4.61-8.71-6.91-4.99-5.48-8-12.03-9.06-19.64.04-3.9.09-7.8.13-11.7.72-6.37,3.03-12.39,6.95-18.05,2.86-5.91,7.05-11.08,12.56-15.51,5.09-4.61,10.77-7.96,17.04-10.05,6.07-3.02,12.34-4.57,18.8-4.67,8.91-.38,16.9,1.4,23.94,5.32,2.93,2.31,5.85,4.63,8.78,6.94,5.02,5.52,8.05,12.11,9.08,19.78l-.18,11.77c-.75,6.4-3.11,12.43-7.07,18.1-2.9,5.91-7.12,11.07-12.66,15.47Z"/>
      </g>
    </g>
  </g>
</svg>